<?xml version="1.0" encoding="UTF-8" standalone="no"?>
<!-- Created with Inkscape (http://www.inkscape.org/) -->

<svg
   xmlns:dc="http://purl.org/dc/elements/1.1/"
   xmlns:cc="http://creativecommons.org/ns#"
   xmlns:rdf="http://www.w3.org/1999/02/22-rdf-syntax-ns#"
   xmlns:svg="http://www.w3.org/2000/svg"
   xmlns="http://www.w3.org/2000/svg"
   xmlns:xlink="http://www.w3.org/1999/xlink"
   xmlns:sodipodi="http://sodipodi.sourceforge.net/DTD/sodipodi-0.dtd"
   xmlns:inkscape="http://www.inkscape.org/namespaces/inkscape"
   width="102"
   height="58"
   id="svg2"
   sodipodi:version="0.32"
   inkscape:version="0.46+devel"
   version="1.0"
   sodipodi:docname="banner.svg"
   inkscape:output_extension="org.inkscape.output.svg.inkscape">
  <defs
     id="defs4">
    <inkscape:perspective
       sodipodi:type="inkscape:persp3d"
       inkscape:vp_x="0 : 526.18109 : 1"
       inkscape:vp_y="0 : 1000 : 0"
       inkscape:vp_z="744.09448 : 526.18109 : 1"
       inkscape:persp3d-origin="372.04724 : 350.78739 : 1"
       id="perspective10" />
    <inkscape:perspective
       id="perspective2659"
       inkscape:persp3d-origin="0.5 : 0.33333333 : 1"
       inkscape:vp_z="1 : 0.5 : 1"
       inkscape:vp_y="0 : 1000 : 0"
       inkscape:vp_x="0 : 0.5 : 1"
       sodipodi:type="inkscape:persp3d" />
    <inkscape:perspective
       id="perspective3664"
       inkscape:persp3d-origin="0.5 : 0.33333333 : 1"
       inkscape:vp_z="1 : 0.5 : 1"
       inkscape:vp_y="0 : 1000 : 0"
       inkscape:vp_x="0 : 0.5 : 1"
       sodipodi:type="inkscape:persp3d" />
    <filter
       inkscape:collect="always"
       id="filter893"
       color-interpolation-filters="sRGB">
      <feGaussianBlur
         inkscape:collect="always"
         stdDeviation="0.73418231"
         id="feGaussianBlur895" />
    </filter>
    <linearGradient
       inkscape:collect="always"
       xlink:href="#linearGradient865"
       id="linearGradient3451"
       gradientUnits="userSpaceOnUse"
       gradientTransform="matrix(0.09658451,0,0,0.48513567,0.40623369,742.33245)"
       x1="198"
       y1="-2"
       x2="198"
       y2="81.054199" />
    <linearGradient
       inkscape:collect="always"
       id="linearGradient865">
      <stop
         style="stop-color:#d85116;stop-opacity:1;"
         offset="0"
         id="stop867" />
      <stop
         style="stop-color:#ef7923;stop-opacity:1"
         offset="1"
         id="stop869" />
    </linearGradient>
    <linearGradient
       y2="81.054199"
       x2="198"
       y1="-2"
       x1="198"
       gradientTransform="matrix(0.23749362,0,0,0.72486567,-0.48608463,995.67877)"
       gradientUnits="userSpaceOnUse"
       id="linearGradient3685"
       xlink:href="#linearGradient865"
       inkscape:collect="always" />
  </defs>
  <sodipodi:namedview
     id="base"
     pagecolor="#ffffff"
     bordercolor="#666666"
     borderopacity="1.0"
     inkscape:pageopacity="0"
     inkscape:pageshadow="2"
     inkscape:zoom="1"
     inkscape:cx="82.08122"
     inkscape:cy="26.109637"
     inkscape:document-units="px"
     inkscape:current-layer="layer1"
     showgrid="false"
     borderlayer="true"
     inkscape:showpageshadow="false"
     showguides="true"
     inkscape:guide-bbox="true"
     inkscape:window-width="735"
     inkscape:window-height="781"
     inkscape:window-x="1880"
     inkscape:window-y="180"
     inkscape:window-maximized="0">
    <sodipodi:guide
       orientation="1,0"
       position="-37,170"
       id="guide2748" />
  </sodipodi:namedview>
  <metadata
     id="metadata7">
    <rdf:RDF>
      <cc:Work
         rdf:about="">
        <dc:format>image/svg+xml</dc:format>
        <dc:type
           rdf:resource="http://purl.org/dc/dcmitype/StillImage" />
        <dc:title></dc:title>
      </cc:Work>
    </rdf:RDF>
  </metadata>
  <g
     inkscape:label="Layer 1"
     inkscape:groupmode="layer"
     id="layer1"
     transform="translate(0,-994.36218)">
    <rect
       style="color:#000000;fill:url(#linearGradient3685);fill-opacity:1;fill-rule:nonzero;stroke:none;stroke-width:3;marker:none;visibility:visible;display:inline;overflow:visible;enable-background:new"
       id="rect828"
       width="104.49718"
       height="60.163845"
       x="-0.24859047"
       y="994.22906" />
    <g
       transform="matrix(0.88540477,0,0,0.88540477,26.610612,689.68178)"
       id="g879"
       style="opacity:0.35922331;fill:#000000;fill-opacity:1;filter:url(#filter893)">
      <path
         style="color:#000000;fill:#000000;fill-opacity:1;fill-rule:nonzero;stroke:none;stroke-width:3;marker:none;visibility:visible;display:inline;overflow:visible;enable-background:new"
         d="M 31,7.6249996 29.967965,10.613691 C 20.610552,9.767587 20,16.498499 20,21.125 c 0,4.164253 0.796483,9.139448 7.25,8.18907 l 0.09296,-6.657035 -2.717965,-0.296483 0.25,-3.328517 6.25,0.342965 -0.25,12.875 C 29.820474,32.958333 28.34325,33.449368 24.5,33.375 18.040105,33.25 14.25,27.940483 14.375,21.375 14.514972,14.023139 17.5,5.1249996 31,7.6249996 z"
         id="path881"
         transform="translate(-25.714285,349.36218)"
         sodipodi:nodetypes="ccsccccccssc" />
      <path
         style="color:#000000;fill:#000000;fill-opacity:1;fill-rule:nonzero;stroke:none;stroke-width:3;marker:none;visibility:visible;display:inline;overflow:visible;enable-background:new"
         d="m 38.6875,17.5 c -3.831475,0 -6.9375,3.385847 -6.9375,7.5625 0,4.176653 3.106025,7.5625 6.9375,7.5625 3.831475,0 6.9375,-3.385847 6.9375,-7.5625 0,-4.176653 -3.106025,-7.5625 -6.9375,-7.5625 z M 39.5,20.125 c 1.656854,0 3,2.238576 3,5 0,2.761424 -1.343146,5 -3,5 -1.656854,0 -3,-2.238576 -3,-5 0,-2.761424 1.343146,-5 3,-5 z"
         transform="translate(-25.714285,349.36218)"
         id="path883" />
      <path
         id="path885"
         d="m -1.276785,384.36218 c -4.7460539,0 -8.5934917,3.55374 -8.5934917,7.9375 0,4.38376 3.8474378,7.9375 8.5934917,7.9375 4.7460538,0 8.5934917,-3.55374 8.5934917,-7.9375 0,-4.38376 -3.8474379,-7.9375 -8.5934917,-7.9375 z m 1.00644498,2.25517 c 2.24788632,0 4.82015882,2.57344 4.82015882,5.74793 0,3.17449 -2.5722725,5.74793 -4.82015882,5.74793 -2.24788638,0 -4.69515878,-2.57344 -4.69515878,-5.74793 0,-3.17449 2.4472724,-5.74793 4.69515878,-5.74793 z"
         style="color:#000000;fill:#000000;fill-opacity:1;fill-rule:nonzero;stroke:none;stroke-width:3;marker:none;visibility:visible;display:inline;overflow:visible;enable-background:new"
         sodipodi:nodetypes="csssccsssc" />
      <path
         sodipodi:nodetypes="csssccssss"
         style="color:#000000;fill:#000000;fill-opacity:1;fill-rule:nonzero;stroke:none;stroke-width:3;marker:none;visibility:visible;display:inline;overflow:visible;enable-background:new"
         d="m 15.473215,383.23718 c -4.33184,0 -7.8434917,3.24359 -7.8434917,7.24475 0,4.00117 3.5116517,7.24475 7.8434917,7.24475 4.33184,0 6.593492,-4.11858 6.593492,-7.24475 0,-3.25116 -2.261652,-7.24475 -6.593492,-7.24475 z m 0.668607,2.05835 c 3.176701,0.125 3.399478,3.22384 3.399478,5.24628 0,2.14743 -0.966286,5.24627 -3.274478,5.24627 -2.609889,0 -4.160387,-2.34884 -4.160387,-5.24627 0,-2.89744 1.985273,-5.32695 4.035387,-5.24628 z"
         id="path887" />
    </g>
    <g
       id="g873"
       transform="matrix(0.88540477,0,0,0.88540477,26.610612,688.46715)">
      <path
         sodipodi:nodetypes="ccsccccccssc"
         transform="translate(-25.714285,349.36218)"
         id="path42"
         d="M 31,7.6249996 29.967965,10.613691 C 20.610552,9.767587 20,16.498499 20,21.125 c 0,4.164253 0.796483,9.139448 7.25,8.18907 l 0.09296,-6.657035 -2.717965,-0.296483 0.25,-3.328517 6.25,0.342965 -0.25,12.875 C 29.820474,32.958333 28.34325,33.449368 24.5,33.375 18.040105,33.25 14.25,27.940483 14.375,21.375 14.514972,14.023139 17.5,5.1249996 31,7.6249996 z"
         style="color:#000000;fill:#ffffff;fill-opacity:1;fill-rule:nonzero;stroke:none;stroke-width:3;marker:none;visibility:visible;display:inline;overflow:visible;enable-background:new" />
      <path
         id="path819"
         transform="translate(-25.714285,349.36218)"
         d="m 38.6875,17.5 c -3.831475,0 -6.9375,3.385847 -6.9375,7.5625 0,4.176653 3.106025,7.5625 6.9375,7.5625 3.831475,0 6.9375,-3.385847 6.9375,-7.5625 0,-4.176653 -3.106025,-7.5625 -6.9375,-7.5625 z M 39.5,20.125 c 1.656854,0 3,2.238576 3,5 0,2.761424 -1.343146,5 -3,5 -1.656854,0 -3,-2.238576 -3,-5 0,-2.761424 1.343146,-5 3,-5 z"
         style="color:#000000;fill:#ffffff;fill-opacity:1;fill-rule:nonzero;stroke:none;stroke-width:3;marker:none;visibility:visible;display:inline;overflow:visible;enable-background:new" />
      <path
         sodipodi:nodetypes="csssccsssc"
         style="color:#000000;fill:#fff7b6;fill-opacity:1;fill-rule:nonzero;stroke:none;stroke-width:3;marker:none;visibility:visible;display:inline;overflow:visible;enable-background:new"
         d="m -1.276785,384.36218 c -4.7460539,0 -8.5934917,3.55374 -8.5934917,7.9375 0,4.38376 3.8474378,7.9375 8.5934917,7.9375 4.7460538,0 8.5934917,-3.55374 8.5934917,-7.9375 0,-4.38376 -3.8474379,-7.9375 -8.5934917,-7.9375 z m 1.00644498,2.25517 c 2.24788632,0 4.82015882,2.57344 4.82015882,5.74793 0,3.17449 -2.5722725,5.74793 -4.82015882,5.74793 -2.24788638,0 -4.69515878,-2.57344 -4.69515878,-5.74793 0,-3.17449 2.4472724,-5.74793 4.69515878,-5.74793 z"
         id="path824" />
      <path
         id="path826"
         d="m 15.473215,383.23718 c -4.33184,0 -7.8434917,3.24359 -7.8434917,7.24475 0,4.00117 3.5116517,7.24475 7.8434917,7.24475 4.33184,0 6.593492,-4.11858 6.593492,-7.24475 0,-3.25116 -2.261652,-7.24475 -6.593492,-7.24475 z m 0.668607,2.05835 c 3.176701,0.125 3.399478,3.22384 3.399478,5.24628 0,2.14743 -0.966286,5.24627 -3.274478,5.24627 -2.609889,0 -4.160387,-2.34884 -4.160387,-5.24627 0,-2.89744 1.985273,-5.32695 4.035387,-5.24628 z"
         style="color:#000000;fill:#fff7b6;fill-opacity:1;fill-rule:nonzero;stroke:none;stroke-width:3;marker:none;visibility:visible;display:inline;overflow:visible;enable-background:new"
         sodipodi:nodetypes="csssccssss" />
    </g>
  </g>
</svg>
