<?xml version="1.0" encoding="UTF-8" standalone="no"?>
<!-- Created with Inkscape (http://www.inkscape.org/) -->

<svg
   xmlns:dc="http://purl.org/dc/elements/1.1/"
   xmlns:cc="http://creativecommons.org/ns#"
   xmlns:rdf="http://www.w3.org/1999/02/22-rdf-syntax-ns#"
   xmlns:svg="http://www.w3.org/2000/svg"
   xmlns="http://www.w3.org/2000/svg"
   xmlns:xlink="http://www.w3.org/1999/xlink"
   xmlns:sodipodi="http://sodipodi.sourceforge.net/DTD/sodipodi-0.dtd"
   xmlns:inkscape="http://www.inkscape.org/namespaces/inkscape"
   width="436.04721"
   height="55"
   id="svg3280"
   version="1.1"
   inkscape:version="0.46+devel"
   sodipodi:docname="New document 9"
   inkscape:output_extension="org.inkscape.output.svg.inkscape">
  <defs
     id="defs3282">
    <inkscape:perspective
       sodipodi:type="inkscape:persp3d"
       inkscape:vp_x="0 : 526.18109 : 1"
       inkscape:vp_y="0 : 1000 : 0"
       inkscape:vp_z="744.09448 : 526.18109 : 1"
       inkscape:persp3d-origin="372.04724 : 350.78739 : 1"
       id="perspective3288" />
    <inkscape:perspective
       id="perspective3253"
       inkscape:persp3d-origin="0.5 : 0.33333333 : 1"
       inkscape:vp_z="1 : 0.5 : 1"
       inkscape:vp_y="0 : 1000 : 0"
       inkscape:vp_x="0 : 0.5 : 1"
       sodipodi:type="inkscape:persp3d" />
    <linearGradient
       inkscape:collect="always"
       xlink:href="#linearGradient915"
       id="linearGradient1263"
       gradientUnits="userSpaceOnUse"
       gradientTransform="matrix(0.99090917,0,0,0.66265061,-512.27662,451.68748)"
       x1="198"
       y1="-2"
       x2="198"
       y2="81.054199" />
    <linearGradient
       id="linearGradient915"
       inkscape:collect="always">
      <stop
         id="stop917"
         offset="0"
         style="stop-color:#e55b20;stop-opacity:1" />
      <stop
         id="stop919"
         offset="1"
         style="stop-color:#fdcc84;stop-opacity:1" />
    </linearGradient>
    <linearGradient
       inkscape:collect="always"
       xlink:href="#linearGradient865"
       id="linearGradient1260"
       gradientUnits="userSpaceOnUse"
       gradientTransform="matrix(0.13192553,0,0,0.66265057,75.106555,451.68749)"
       x1="198"
       y1="-2"
       x2="198"
       y2="81.054199" />
    <linearGradient
       inkscape:collect="always"
       id="linearGradient865">
      <stop
         style="stop-color:#d85116;stop-opacity:1;"
         offset="0"
         id="stop867" />
      <stop
         style="stop-color:#ef7923;stop-opacity:1"
         offset="1"
         id="stop869" />
    </linearGradient>
    <filter
       inkscape:collect="always"
       id="filter893"
       color-interpolation-filters="sRGB">
      <feGaussianBlur
         inkscape:collect="always"
         stdDeviation="0.73418231"
         id="feGaussianBlur895" />
    </filter>
  </defs>
  <sodipodi:namedview
     id="base"
     pagecolor="#ffffff"
     bordercolor="#666666"
     borderopacity="1.0"
     inkscape:pageopacity="0.0"
     inkscape:pageshadow="2"
     inkscape:zoom="1"
     inkscape:cx="235.16646"
     inkscape:cy="19.642857"
     inkscape:document-units="px"
     inkscape:current-layer="layer1"
     showgrid="false"
     borderlayer="true"
     inkscape:showpageshadow="false"
     inkscape:window-width="609"
     inkscape:window-height="419"
     inkscape:window-x="938"
     inkscape:window-y="485"
     inkscape:window-maximized="0" />
  <metadata
     id="metadata3285">
    <rdf:RDF>
      <cc:Work
         rdf:about="">
        <dc:format>image/svg+xml</dc:format>
        <dc:type
           rdf:resource="http://purl.org/dc/dcmitype/StillImage" />
        <dc:title></dc:title>
      </cc:Work>
    </rdf:RDF>
  </metadata>
  <g
     inkscape:label="Layer 1"
     inkscape:groupmode="layer"
     id="layer1"
     transform="translate(135.16646,-402.00504)">
    <g
       id="g1266"
       transform="translate(-210.40495,-48.357143)">
      <rect
         y="450.36218"
         x="-511.28571"
         height="55"
         width="436"
         id="rect1191"
         style="color:#000000;fill:url(#linearGradient1263);fill-opacity:1;fill-rule:nonzero;stroke:none;stroke-width:3;marker:none;visibility:visible;display:inline;overflow:visible;enable-background:new"
         transform="scale(-1,1)" />
      <rect
         style="color:#000000;fill:url(#linearGradient1260);fill-opacity:1;fill-rule:nonzero;stroke:none;stroke-width:3;marker:none;visibility:visible;display:inline;overflow:visible;enable-background:new"
         id="rect1193"
         width="58.04723"
         height="54.999996"
         x="75.238487"
         y="450.36218" />
      <g
         transform="matrix(0.60847844,0,0,0.60847844,100.57591,248.61904)"
         id="g1195"
         style="opacity:0.35922331;fill:#000000;fill-opacity:1;filter:url(#filter893)">
        <path
           style="color:#000000;fill:#000000;fill-opacity:1;fill-rule:nonzero;stroke:none;stroke-width:3;marker:none;visibility:visible;display:inline;overflow:visible;enable-background:new"
           d="M 31,7.6249996 29.967965,10.613691 C 20.610552,9.767587 20,16.498499 20,21.125 c 0,4.164253 0.796483,9.139448 7.25,8.18907 l 0.09296,-6.657035 -2.717965,-0.296483 0.25,-3.328517 6.25,0.342965 -0.25,12.875 C 29.820474,32.958333 28.34325,33.449368 24.5,33.375 18.040105,33.25 14.25,27.940483 14.375,21.375 14.514972,14.023139 17.5,5.1249996 31,7.6249996 z"
           id="path1197"
           transform="translate(-25.714285,349.36218)"
           sodipodi:nodetypes="ccsccccccssc" />
        <path
           style="color:#000000;fill:#000000;fill-opacity:1;fill-rule:nonzero;stroke:none;stroke-width:3;marker:none;visibility:visible;display:inline;overflow:visible;enable-background:new"
           d="m 38.6875,17.5 c -3.831475,0 -6.9375,3.385847 -6.9375,7.5625 0,4.176653 3.106025,7.5625 6.9375,7.5625 3.831475,0 6.9375,-3.385847 6.9375,-7.5625 0,-4.176653 -3.106025,-7.5625 -6.9375,-7.5625 z M 39.5,20.125 c 1.656854,0 3,2.238576 3,5 0,2.761424 -1.343146,5 -3,5 -1.656854,0 -3,-2.238576 -3,-5 0,-2.761424 1.343146,-5 3,-5 z"
           transform="translate(-25.714285,349.36218)"
           id="path1199" />
        <path
           id="path1201"
           d="m -1.276785,384.36218 c -4.7460539,0 -8.5934917,3.55374 -8.5934917,7.9375 0,4.38376 3.8474378,7.9375 8.5934917,7.9375 4.7460538,0 8.5934917,-3.55374 8.5934917,-7.9375 0,-4.38376 -3.8474379,-7.9375 -8.5934917,-7.9375 z m 1.00644498,2.25517 c 2.24788632,0 4.82015882,2.57344 4.82015882,5.74793 0,3.17449 -2.5722725,5.74793 -4.82015882,5.74793 -2.24788638,0 -4.69515878,-2.57344 -4.69515878,-5.74793 0,-3.17449 2.4472724,-5.74793 4.69515878,-5.74793 z"
           style="color:#000000;fill:#000000;fill-opacity:1;fill-rule:nonzero;stroke:none;stroke-width:3;marker:none;visibility:visible;display:inline;overflow:visible;enable-background:new"
           sodipodi:nodetypes="csssccsssc" />
        <path
           sodipodi:nodetypes="csssccssss"
           style="color:#000000;fill:#000000;fill-opacity:1;fill-rule:nonzero;stroke:none;stroke-width:3;marker:none;visibility:visible;display:inline;overflow:visible;enable-background:new"
           d="m 15.473215,383.23718 c -4.33184,0 -7.8434917,3.24359 -7.8434917,7.24475 0,4.00117 3.5116517,7.24475 7.8434917,7.24475 4.33184,0 6.593492,-4.11858 6.593492,-7.24475 0,-3.25116 -2.261652,-7.24475 -6.593492,-7.24475 z m 0.668607,2.05835 c 3.176701,0.125 3.399478,3.22384 3.399478,5.24628 0,2.14743 -0.966286,5.24627 -3.274478,5.24627 -2.609889,0 -4.160387,-2.34884 -4.160387,-5.24627 0,-2.89744 1.985273,-5.32695 4.035387,-5.24628 z"
           id="path1203" />
      </g>
      <g
         id="g1205"
         transform="matrix(0.60847844,0,0,0.60847844,100.57591,247.7843)">
        <path
           sodipodi:nodetypes="ccsccccccssc"
           transform="translate(-25.714285,349.36218)"
           id="path1207"
           d="M 31,7.6249996 29.967965,10.613691 C 20.610552,9.767587 20,16.498499 20,21.125 c 0,4.164253 0.796483,9.139448 7.25,8.18907 l 0.09296,-6.657035 -2.717965,-0.296483 0.25,-3.328517 6.25,0.342965 -0.25,12.875 C 29.820474,32.958333 28.34325,33.449368 24.5,33.375 18.040105,33.25 14.25,27.940483 14.375,21.375 14.514972,14.023139 17.5,5.1249996 31,7.6249996 z"
           style="color:#000000;fill:#ffffff;fill-opacity:1;fill-rule:nonzero;stroke:none;stroke-width:3;marker:none;visibility:visible;display:inline;overflow:visible;enable-background:new" />
        <path
           id="path1209"
           transform="translate(-25.714285,349.36218)"
           d="m 38.6875,17.5 c -3.831475,0 -6.9375,3.385847 -6.9375,7.5625 0,4.176653 3.106025,7.5625 6.9375,7.5625 3.831475,0 6.9375,-3.385847 6.9375,-7.5625 0,-4.176653 -3.106025,-7.5625 -6.9375,-7.5625 z M 39.5,20.125 c 1.656854,0 3,2.238576 3,5 0,2.761424 -1.343146,5 -3,5 -1.656854,0 -3,-2.238576 -3,-5 0,-2.761424 1.343146,-5 3,-5 z"
           style="color:#000000;fill:#ffffff;fill-opacity:1;fill-rule:nonzero;stroke:none;stroke-width:3;marker:none;visibility:visible;display:inline;overflow:visible;enable-background:new" />
        <path
           sodipodi:nodetypes="csssccsssc"
           style="color:#000000;fill:#fff7b6;fill-opacity:1;fill-rule:nonzero;stroke:none;stroke-width:3;marker:none;visibility:visible;display:inline;overflow:visible;enable-background:new"
           d="m -1.276785,384.36218 c -4.7460539,0 -8.5934917,3.55374 -8.5934917,7.9375 0,4.38376 3.8474378,7.9375 8.5934917,7.9375 4.7460538,0 8.5934917,-3.55374 8.5934917,-7.9375 0,-4.38376 -3.8474379,-7.9375 -8.5934917,-7.9375 z m 1.00644498,2.25517 c 2.24788632,0 4.82015882,2.57344 4.82015882,5.74793 0,3.17449 -2.5722725,5.74793 -4.82015882,5.74793 -2.24788638,0 -4.69515878,-2.57344 -4.69515878,-5.74793 0,-3.17449 2.4472724,-5.74793 4.69515878,-5.74793 z"
           id="path1211" />
        <path
           id="path1213"
           d="m 15.473215,383.23718 c -4.33184,0 -7.8434917,3.24359 -7.8434917,7.24475 0,4.00117 3.5116517,7.24475 7.8434917,7.24475 4.33184,0 6.593492,-4.11858 6.593492,-7.24475 0,-3.25116 -2.261652,-7.24475 -6.593492,-7.24475 z m 0.668607,2.05835 c 3.176701,0.125 3.399478,3.22384 3.399478,5.24628 0,2.14743 -0.966286,5.24627 -3.274478,5.24627 -2.609889,0 -4.160387,-2.34884 -4.160387,-5.24627 0,-2.89744 1.985273,-5.32695 4.035387,-5.24628 z"
           style="color:#000000;fill:#fff7b6;fill-opacity:1;fill-rule:nonzero;stroke:none;stroke-width:3;marker:none;visibility:visible;display:inline;overflow:visible;enable-background:new"
           sodipodi:nodetypes="csssccssss" />
      </g>
    </g>
  </g>
</svg>
