<?xml version="1.0" encoding="UTF-8" standalone="no"?>
<!-- Created with Inkscape (http://www.inkscape.org/) -->

<svg
   xmlns:dc="http://purl.org/dc/elements/1.1/"
   xmlns:cc="http://creativecommons.org/ns#"
   xmlns:rdf="http://www.w3.org/1999/02/22-rdf-syntax-ns#"
   xmlns:svg="http://www.w3.org/2000/svg"
   xmlns="http://www.w3.org/2000/svg"
   xmlns:xlink="http://www.w3.org/1999/xlink"
   xmlns:sodipodi="http://sodipodi.sourceforge.net/DTD/sodipodi-0.dtd"
   xmlns:inkscape="http://www.inkscape.org/namespaces/inkscape"
   width="441"
   height="287"
   id="svg3021"
   version="1.1"
   inkscape:version="0.46+devel"
   sodipodi:docname="New document 5"
   inkscape:output_extension="org.inkscape.output.svg.inkscape">
  <defs
     id="defs3023">
    <inkscape:perspective
       sodipodi:type="inkscape:persp3d"
       inkscape:vp_x="0 : 526.18109 : 1"
       inkscape:vp_y="0 : 1000 : 0"
       inkscape:vp_z="744.09448 : 526.18109 : 1"
       inkscape:persp3d-origin="372.04724 : 350.78739 : 1"
       id="perspective3029" />
    <inkscape:perspective
       id="perspective2990"
       inkscape:persp3d-origin="0.5 : 0.33333333 : 1"
       inkscape:vp_z="1 : 0.5 : 1"
       inkscape:vp_y="0 : 1000 : 0"
       inkscape:vp_x="0 : 0.5 : 1"
       sodipodi:type="inkscape:persp3d" />
    <linearGradient
       inkscape:collect="always"
       xlink:href="#linearGradient915"
       id="linearGradient899"
       gradientUnits="userSpaceOnUse"
       gradientTransform="matrix(0.99881239,0,0,0.99820094,-516.28451,104.82034)"
       x1="198"
       y1="-2"
       x2="198"
       y2="81.054199" />
    <linearGradient
       id="linearGradient915"
       inkscape:collect="always">
      <stop
         id="stop917"
         offset="0"
         style="stop-color:#e55b20;stop-opacity:1" />
      <stop
         id="stop919"
         offset="1"
         style="stop-color:#fdcc84;stop-opacity:1" />
    </linearGradient>
    <linearGradient
       inkscape:collect="always"
       xlink:href="#linearGradient865"
       id="linearGradient871"
       x1="198"
       y1="-2"
       x2="198"
       y2="81.054199"
       gradientUnits="userSpaceOnUse"
       gradientTransform="matrix(0.19872945,0,0,0.99820094,75.086977,104.82034)" />
    <linearGradient
       inkscape:collect="always"
       id="linearGradient865">
      <stop
         style="stop-color:#d85116;stop-opacity:1;"
         offset="0"
         id="stop867" />
      <stop
         style="stop-color:#ef7923;stop-opacity:1"
         offset="1"
         id="stop869" />
    </linearGradient>
    <filter
       inkscape:collect="always"
       id="filter893"
       color-interpolation-filters="sRGB">
      <feGaussianBlur
         inkscape:collect="always"
         stdDeviation="0.73418231"
         id="feGaussianBlur895" />
    </filter>
  </defs>
  <sodipodi:namedview
     id="base"
     pagecolor="#ffffff"
     bordercolor="#666666"
     borderopacity="1.0"
     inkscape:pageopacity="0.0"
     inkscape:pageshadow="2"
     inkscape:zoom="1"
     inkscape:cx="181.64286"
     inkscape:cy="136.92857"
     inkscape:document-units="px"
     inkscape:current-layer="layer1"
     showgrid="false"
     borderlayer="true"
     inkscape:showpageshadow="false"
     inkscape:window-width="942"
     inkscape:window-height="694"
     inkscape:window-x="526"
     inkscape:window-y="401"
     inkscape:window-maximized="0" />
  <metadata
     id="metadata3026">
    <rdf:RDF>
      <cc:Work
         rdf:about="">
        <dc:format>image/svg+xml</dc:format>
        <dc:type
           rdf:resource="http://purl.org/dc/dcmitype/StillImage" />
        <dc:title></dc:title>
      </cc:Work>
    </rdf:RDF>
  </metadata>
  <g
     inkscape:label="Layer 1"
     inkscape:groupmode="layer"
     id="layer1"
     transform="translate(-82.357143,-320.29076)">
    <g
       transform="translate(7.5714297,217.96682)"
       id="g1066">
      <rect
         y="102.82394"
         x="75.285713"
         height="286"
         width="440"
         id="rect974"
         style="color:#000000;fill:#ffffff;fill-opacity:1;fill-rule:nonzero;stroke:#babdb6;stroke-width:1;stroke-miterlimit:4;stroke-opacity:1;stroke-dasharray:none;marker:none;visibility:visible;display:inline;overflow:visible;enable-background:new" />
      <rect
         transform="scale(-1,1)"
         style="color:#000000;fill:url(#linearGradient899);fill-opacity:1;fill-rule:nonzero;stroke:none;stroke-width:3;marker:none;visibility:visible;display:inline;overflow:visible;enable-background:new"
         id="rect897"
         width="439.47742"
         height="82.850677"
         x="-515.28571"
         y="102.82394" />
      <rect
         y="102.82394"
         x="75.285713"
         height="82.850677"
         width="87.440956"
         id="rect828"
         style="color:#000000;fill:url(#linearGradient871);fill-opacity:1;fill-rule:nonzero;stroke:none;stroke-width:3;marker:none;visibility:visible;display:inline;overflow:visible;enable-background:new" />
      <g
         style="opacity:0.35922331;fill:#000000;fill-opacity:1;filter:url(#filter893)"
         id="g879"
         transform="matrix(0.9275478,0,0,0.9275478,113.8374,-206.17383)">
        <path
           sodipodi:nodetypes="ccsccccccssc"
           transform="translate(-25.714285,349.36218)"
           id="path881"
           d="M 31,7.6249996 29.967965,10.613691 C 20.610552,9.767587 20,16.498499 20,21.125 c 0,4.164253 0.796483,9.139448 7.25,8.18907 l 0.09296,-6.657035 -2.717965,-0.296483 0.25,-3.328517 6.25,0.342965 -0.25,12.875 C 29.820474,32.958333 28.34325,33.449368 24.5,33.375 18.040105,33.25 14.25,27.940483 14.375,21.375 14.514972,14.023139 17.5,5.1249996 31,7.6249996 z"
           style="color:#000000;fill:#000000;fill-opacity:1;fill-rule:nonzero;stroke:none;stroke-width:3;marker:none;visibility:visible;display:inline;overflow:visible;enable-background:new" />
        <path
           id="path883"
           transform="translate(-25.714285,349.36218)"
           d="m 38.6875,17.5 c -3.831475,0 -6.9375,3.385847 -6.9375,7.5625 0,4.176653 3.106025,7.5625 6.9375,7.5625 3.831475,0 6.9375,-3.385847 6.9375,-7.5625 0,-4.176653 -3.106025,-7.5625 -6.9375,-7.5625 z M 39.5,20.125 c 1.656854,0 3,2.238576 3,5 0,2.761424 -1.343146,5 -3,5 -1.656854,0 -3,-2.238576 -3,-5 0,-2.761424 1.343146,-5 3,-5 z"
           style="color:#000000;fill:#000000;fill-opacity:1;fill-rule:nonzero;stroke:none;stroke-width:3;marker:none;visibility:visible;display:inline;overflow:visible;enable-background:new" />
        <path
           sodipodi:nodetypes="csssccsssc"
           style="color:#000000;fill:#000000;fill-opacity:1;fill-rule:nonzero;stroke:none;stroke-width:3;marker:none;visibility:visible;display:inline;overflow:visible;enable-background:new"
           d="m -1.276785,384.36218 c -4.7460539,0 -8.5934917,3.55374 -8.5934917,7.9375 0,4.38376 3.8474378,7.9375 8.5934917,7.9375 4.7460538,0 8.5934917,-3.55374 8.5934917,-7.9375 0,-4.38376 -3.8474379,-7.9375 -8.5934917,-7.9375 z m 1.00644498,2.25517 c 2.24788632,0 4.82015882,2.57344 4.82015882,5.74793 0,3.17449 -2.5722725,5.74793 -4.82015882,5.74793 -2.24788638,0 -4.69515878,-2.57344 -4.69515878,-5.74793 0,-3.17449 2.4472724,-5.74793 4.69515878,-5.74793 z"
           id="path885" />
        <path
           id="path887"
           d="m 15.473215,383.23718 c -4.33184,0 -7.8434917,3.24359 -7.8434917,7.24475 0,4.00117 3.5116517,7.24475 7.8434917,7.24475 4.33184,0 6.593492,-4.11858 6.593492,-7.24475 0,-3.25116 -2.261652,-7.24475 -6.593492,-7.24475 z m 0.668607,2.05835 c 3.176701,0.125 3.399478,3.22384 3.399478,5.24628 0,2.14743 -0.966286,5.24627 -3.274478,5.24627 -2.609889,0 -4.160387,-2.34884 -4.160387,-5.24627 0,-2.89744 1.985273,-5.32695 4.035387,-5.24628 z"
           style="color:#000000;fill:#000000;fill-opacity:1;fill-rule:nonzero;stroke:none;stroke-width:3;marker:none;visibility:visible;display:inline;overflow:visible;enable-background:new"
           sodipodi:nodetypes="csssccssss" />
      </g>
      <g
         transform="matrix(0.9275478,0,0,0.9275478,113.8374,-207.44629)"
         id="g873">
        <path
           style="color:#000000;fill:#ffffff;fill-opacity:1;fill-rule:nonzero;stroke:none;stroke-width:3;marker:none;visibility:visible;display:inline;overflow:visible;enable-background:new"
           d="M 31,7.6249996 29.967965,10.613691 C 20.610552,9.767587 20,16.498499 20,21.125 c 0,4.164253 0.796483,9.139448 7.25,8.18907 l 0.09296,-6.657035 -2.717965,-0.296483 0.25,-3.328517 6.25,0.342965 -0.25,12.875 C 29.820474,32.958333 28.34325,33.449368 24.5,33.375 18.040105,33.25 14.25,27.940483 14.375,21.375 14.514972,14.023139 17.5,5.1249996 31,7.6249996 z"
           id="path42"
           transform="translate(-25.714285,349.36218)"
           sodipodi:nodetypes="ccsccccccssc" />
        <path
           style="color:#000000;fill:#ffffff;fill-opacity:1;fill-rule:nonzero;stroke:none;stroke-width:3;marker:none;visibility:visible;display:inline;overflow:visible;enable-background:new"
           d="m 38.6875,17.5 c -3.831475,0 -6.9375,3.385847 -6.9375,7.5625 0,4.176653 3.106025,7.5625 6.9375,7.5625 3.831475,0 6.9375,-3.385847 6.9375,-7.5625 0,-4.176653 -3.106025,-7.5625 -6.9375,-7.5625 z M 39.5,20.125 c 1.656854,0 3,2.238576 3,5 0,2.761424 -1.343146,5 -3,5 -1.656854,0 -3,-2.238576 -3,-5 0,-2.761424 1.343146,-5 3,-5 z"
           transform="translate(-25.714285,349.36218)"
           id="path819" />
        <path
           id="path824"
           d="m -1.276785,384.36218 c -4.7460539,0 -8.5934917,3.55374 -8.5934917,7.9375 0,4.38376 3.8474378,7.9375 8.5934917,7.9375 4.7460538,0 8.5934917,-3.55374 8.5934917,-7.9375 0,-4.38376 -3.8474379,-7.9375 -8.5934917,-7.9375 z m 1.00644498,2.25517 c 2.24788632,0 4.82015882,2.57344 4.82015882,5.74793 0,3.17449 -2.5722725,5.74793 -4.82015882,5.74793 -2.24788638,0 -4.69515878,-2.57344 -4.69515878,-5.74793 0,-3.17449 2.4472724,-5.74793 4.69515878,-5.74793 z"
           style="color:#000000;fill:#fff7b6;fill-opacity:1;fill-rule:nonzero;stroke:none;stroke-width:3;marker:none;visibility:visible;display:inline;overflow:visible;enable-background:new"
           sodipodi:nodetypes="csssccsssc" />
        <path
           sodipodi:nodetypes="csssccssss"
           style="color:#000000;fill:#fff7b6;fill-opacity:1;fill-rule:nonzero;stroke:none;stroke-width:3;marker:none;visibility:visible;display:inline;overflow:visible;enable-background:new"
           d="m 15.473215,383.23718 c -4.33184,0 -7.8434917,3.24359 -7.8434917,7.24475 0,4.00117 3.5116517,7.24475 7.8434917,7.24475 4.33184,0 6.593492,-4.11858 6.593492,-7.24475 0,-3.25116 -2.261652,-7.24475 -6.593492,-7.24475 z m 0.668607,2.05835 c 3.176701,0.125 3.399478,3.22384 3.399478,5.24628 0,2.14743 -0.966286,5.24627 -3.274478,5.24627 -2.609889,0 -4.160387,-2.34884 -4.160387,-5.24627 0,-2.89744 1.985273,-5.32695 4.035387,-5.24628 z"
           id="path826" />
      </g>
      <text
         sodipodi:linespacing="100%"
         id="text945"
         y="268.64267"
         x="199.53073"
         style="font-size:28.16456223px;font-style:normal;font-variant:normal;font-weight:normal;font-stretch:normal;text-indent:0;text-align:start;text-decoration:none;line-height:100%;letter-spacing:normal;word-spacing:normal;text-transform:none;direction:ltr;block-progression:tb;writing-mode:lr-tb;text-anchor:start;color:#000000;fill:#888a85;fill-opacity:1;fill-rule:nonzero;stroke:none;stroke-width:3;marker:none;visibility:visible;display:inline;overflow:visible;enable-background:new;font-family:Gentium;-inkscape-font-specification:Gentium"
         xml:space="preserve"><tspan
           dx="0 0 0 0 0 -1.0668943"
           y="268.64267"
           x="199.53073"
           id="tspan947"
           sodipodi:role="line">OpenOffice.org</tspan></text>
      <rect
         y="287.36218"
         x="202.28571"
         height="1.0129449"
         width="170"
         id="rect949"
         style="color:#000000;fill:#eeeeec;fill-opacity:1;fill-rule:nonzero;stroke:none;stroke-width:3;marker:none;visibility:visible;display:inline;overflow:visible;enable-background:new" />
    </g>
  </g>
</svg>
